<mxfile host="65bd71144e">
    <diagram id="4c2N9HchdUhVFrRCEX3p" name="第 1 页">
        <mxGraphModel dx="2004" dy="958" grid="1" gridSize="10" guides="1" tooltips="1" connect="1" arrows="1" fold="1" page="1" pageScale="1" pageWidth="827" pageHeight="1169" math="0" shadow="0">
            <root>
                <mxCell id="0"/>
                <mxCell id="1" parent="0"/>
                <mxCell id="N4FvcCl4ZXjvZAiSPZYk-19" value="&lt;font style=&quot;font-size: 14px&quot;&gt;&lt;span style=&quot;color: rgb(34 , 34 , 34) ; font-family: &amp;#34;merriweather&amp;#34; , &amp;#34;georgia&amp;#34; , serif&quot;&gt;React 清除&lt;/span&gt;&lt;code class=&quot;language-text&quot; style=&quot;box-sizing: inherit ; font-family: &amp;#34;consolas&amp;#34; , &amp;#34;menlo&amp;#34; , &amp;#34;monaco&amp;#34; , , &amp;#34;courier new&amp;#34; , monospace ; line-height: 1.5 ; margin-bottom: 0px ; word-spacing: normal ; word-break: normal ; overflow-wrap: normal ; border-radius: 0.3em ; padding: 0.15em 0.2em 0.05em&quot;&gt;{id: 10}&lt;/code&gt;&lt;span style=&quot;color: rgb(34 , 34 , 34) ; font-family: &amp;#34;merriweather&amp;#34; , &amp;#34;georgia&amp;#34; , serif&quot;&gt;的effect&lt;/span&gt;&lt;/font&gt;" style="rounded=1;whiteSpace=wrap;html=1;aspect=fixed;fillColor=#f8cecc;strokeColor=#b85450;" vertex="1" parent="1">
                    <mxGeometry x="-780" y="330" width="300" height="90" as="geometry"/>
                </mxCell>
                <mxCell id="N4FvcCl4ZXjvZAiSPZYk-20" value="" style="endArrow=classic;html=1;exitX=0.5;exitY=1;exitDx=0;exitDy=0;entryX=0.5;entryY=0;entryDx=0;entryDy=0;" edge="1" parent="1" source="N4FvcCl4ZXjvZAiSPZYk-19" target="N4FvcCl4ZXjvZAiSPZYk-21">
                    <mxGeometry width="50" height="50" relative="1" as="geometry">
                        <mxPoint x="-650" y="430" as="sourcePoint"/>
                        <mxPoint x="-630" y="470" as="targetPoint"/>
                    </mxGeometry>
                </mxCell>
                <mxCell id="N4FvcCl4ZXjvZAiSPZYk-21" value="&lt;font style=&quot;font-size: 14px&quot;&gt;&lt;span style=&quot;color: rgb(34 , 34 , 34) ; font-family: &amp;#34;merriweather&amp;#34; , &amp;#34;georgia&amp;#34; , serif&quot;&gt;React 运行&lt;/span&gt;&lt;code class=&quot;language-text&quot; style=&quot;box-sizing: inherit ; line-height: 1.5 ; margin-bottom: 0px ; word-spacing: normal ; word-break: normal ; overflow-wrap: normal ; border-radius: 0.3em ; padding: 0.15em 0.2em 0.05em&quot;&gt;{id: 20}&lt;/code&gt;&lt;span style=&quot;color: rgb(34 , 34 , 34) ; font-family: &amp;#34;merriweather&amp;#34; , &amp;#34;georgia&amp;#34; , serif&quot;&gt;的effect&lt;/span&gt;&lt;/font&gt;" style="rounded=1;whiteSpace=wrap;html=1;aspect=fixed;fillColor=#d5e8d4;strokeColor=#82b366;" vertex="1" parent="1">
                    <mxGeometry x="-780" y="480" width="300" height="90" as="geometry"/>
                </mxCell>
                <mxCell id="N4FvcCl4ZXjvZAiSPZYk-22" value="" style="edgeStyle=orthogonalEdgeStyle;rounded=0;orthogonalLoop=1;jettySize=auto;html=1;" edge="1" parent="1" source="N4FvcCl4ZXjvZAiSPZYk-23" target="N4FvcCl4ZXjvZAiSPZYk-25">
                    <mxGeometry relative="1" as="geometry"/>
                </mxCell>
                <mxCell id="N4FvcCl4ZXjvZAiSPZYk-23" value="&lt;font style=&quot;font-size: 14px&quot;&gt;&lt;span style=&quot;color: rgb(34 , 34 , 34) ; font-family: &amp;#34;merriweather&amp;#34; , &amp;#34;georgia&amp;#34; , serif&quot;&gt;React 渲染&lt;/span&gt;&lt;code class=&quot;language-text&quot; style=&quot;box-sizing: inherit ; line-height: 1.5 ; margin-bottom: 0px ; word-spacing: normal ; word-break: normal ; overflow-wrap: normal ; border-radius: 0.3em ; padding: 0.15em 0.2em 0.05em&quot;&gt;{id: 20}&lt;/code&gt;&lt;span style=&quot;color: rgb(34 , 34 , 34) ; font-family: &amp;#34;merriweather&amp;#34; , &amp;#34;georgia&amp;#34; , serif&quot;&gt;的UI&lt;/span&gt;&lt;/font&gt;" style="rounded=1;whiteSpace=wrap;html=1;aspect=fixed;fillColor=#dae8fc;strokeColor=#6c8ebf;" vertex="1" parent="1">
                    <mxGeometry x="-780" y="40" width="300" height="90" as="geometry"/>
                </mxCell>
                <mxCell id="N4FvcCl4ZXjvZAiSPZYk-24" value="" style="edgeStyle=orthogonalEdgeStyle;rounded=0;orthogonalLoop=1;jettySize=auto;html=1;" edge="1" parent="1" source="N4FvcCl4ZXjvZAiSPZYk-25" target="N4FvcCl4ZXjvZAiSPZYk-19">
                    <mxGeometry relative="1" as="geometry"/>
                </mxCell>
                <mxCell id="N4FvcCl4ZXjvZAiSPZYk-25" value="&lt;font style=&quot;font-size: 14px&quot;&gt;&lt;span style=&quot;color: rgb(34 , 34 , 34) ; font-family: &amp;#34;merriweather&amp;#34; , &amp;#34;georgia&amp;#34; , serif&quot;&gt;浏览器绘制。&lt;br&gt;屏幕上看到&lt;/span&gt;&lt;code class=&quot;language-text&quot; style=&quot;box-sizing: inherit ; font-family: &amp;#34;consolas&amp;#34; , &amp;#34;menlo&amp;#34; , &amp;#34;monaco&amp;#34; , , &amp;#34;courier new&amp;#34; , monospace ; line-height: 1.5 ; margin-bottom: 0px ; word-spacing: normal ; word-break: normal ; overflow-wrap: normal ; border-radius: 0.3em ; padding: 0.15em 0.2em 0.05em&quot;&gt;{id: 20}&lt;/code&gt;&lt;span style=&quot;color: rgb(34 , 34 , 34) ; font-family: &amp;#34;merriweather&amp;#34; , &amp;#34;georgia&amp;#34; , serif&quot;&gt;的UI。&lt;/span&gt;&lt;/font&gt;" style="rounded=1;whiteSpace=wrap;html=1;aspect=fixed;fillColor=#fff2cc;strokeColor=#d6b656;" vertex="1" parent="1">
                    <mxGeometry x="-780" y="170" width="300" height="90" as="geometry"/>
                </mxCell>
            </root>
        </mxGraphModel>
    </diagram>
</mxfile>